<?xml version="1.0" encoding="utf-8"?>
<!-- Generator: Adobe Illustrator 24.0.2, SVG Export Plug-In . SVG Version: 6.00 Build 0)  -->
<svg version="1.1" id="Ebene_1" xmlns="http://www.w3.org/2000/svg" xmlns:xlink="http://www.w3.org/1999/xlink" x="0px" y="0px" height="50px" width="210px"
	 viewBox="0 0 210 50" style="enable-background:new 0 0 210 50;" xml:space="preserve">
<style type="text/css">
	.st0{fill-rule:evenodd;clip-rule:evenodd;fill:#616268;}
	.st1{fill-rule:evenodd;clip-rule:evenodd;fill:url(#SVGID_1_);}
</style>
<g>
	<path class="st0" d="M80.2,30.1c-0.3,2.8-1.3,5-3,6.5c-1.7,1.5-4,2.3-6.8,2.3c-2,0-3.7-0.5-5.3-1.5c-1.5-1-2.7-2.4-3.5-4.3
		c-0.8-1.8-1.3-3.9-1.3-6.3v-3.5c0-2.4,0.4-4.5,1.2-6.4c0.8-1.9,2-3.3,3.6-4.3c1.6-1,3.4-1.5,5.4-1.5c2.9,0,5.1,0.8,6.8,2.3
		c1.7,1.6,2.6,3.7,2.9,6.5h-2.3c-0.6-4.6-3-6.9-7.4-6.9c-2.4,0-4.4,0.9-5.8,2.7c-1.4,1.8-2.2,4.4-2.2,7.6v3.3c0,3.1,0.7,5.6,2.1,7.4
		c1.4,1.8,3.3,2.8,5.7,2.8c2.4,0,4.2-0.6,5.4-1.7c1.2-1.1,1.9-2.9,2.2-5.1H80.2L80.2,30.1z M103.9,25.5H91.3v11h14.4v1.9H89.1V11.5
		h16.6v1.9H91.3v10.2h12.5V25.5L103.9,25.5z M116.1,27.5v10.9h-2.3V11.5h9.1c2.8,0,5,0.7,6.6,2.1c1.6,1.4,2.4,3.4,2.4,5.9
		c0,2.5-0.8,4.5-2.3,5.9c-1.6,1.4-3.8,2.1-6.7,2.1H116.1L116.1,27.5z M116.1,25.6h6.9c2.2,0,3.9-0.5,5-1.6c1.2-1,1.7-2.5,1.7-4.4
		c0-1.9-0.6-3.4-1.7-4.5c-1.1-1.1-2.8-1.7-4.9-1.7h-7V25.6L116.1,25.6z M150.5,27.3h-7.8v11.2h-2.3V11.5h8.7c2.9,0,5.1,0.7,6.7,2.1
		c1.6,1.4,2.4,3.3,2.4,5.8c0,1.7-0.5,3.2-1.5,4.6c-1,1.3-2.4,2.2-4.1,2.7l6.7,11.5v0.2h-2.4L150.5,27.3L150.5,27.3z M142.7,25.3h6.9
		c1.9,0,3.4-0.5,4.6-1.6c1.2-1.1,1.7-2.5,1.7-4.2c0-1.9-0.6-3.4-1.8-4.4c-1.2-1-2.9-1.6-5.1-1.6h-6.4V25.3L142.7,25.3z M182.5,25.5
		H170v11h14.4v1.9h-16.7V11.5h16.6v1.9H170v10.2h12.5V25.5L182.5,25.5z M207.7,31.8c0-1.5-0.5-2.7-1.6-3.5c-1-0.9-3-1.7-5.7-2.5
		c-2.8-0.8-4.8-1.6-6.1-2.6c-1.8-1.3-2.7-3-2.7-5.1c0-2.1,0.8-3.7,2.5-5c1.7-1.3,3.8-1.9,6.5-1.9c1.8,0,3.4,0.3,4.8,1
		c1.4,0.7,2.5,1.7,3.3,2.9c0.8,1.2,1.2,2.6,1.2,4.1h-2.3c0-1.8-0.6-3.3-1.9-4.4c-1.2-1.1-2.9-1.7-5-1.7c-2,0-3.7,0.5-4.9,1.4
		c-1.2,0.9-1.8,2.1-1.8,3.6c0,1.4,0.5,2.5,1.6,3.4c1.1,0.9,2.8,1.6,5.2,2.3c2.4,0.7,4.2,1.3,5.5,2.1c1.2,0.7,2.2,1.6,2.8,2.6
		c0.6,1,0.9,2.2,0.9,3.5c0,2.1-0.8,3.8-2.5,5.1c-1.7,1.3-3.9,1.9-6.7,1.9c-1.9,0-3.6-0.3-5.2-1c-1.6-0.7-2.8-1.6-3.6-2.9
		c-0.8-1.2-1.2-2.6-1.2-4.2h2.3c0,1.9,0.7,3.4,2.1,4.5c1.4,1.1,3.3,1.6,5.6,1.6c2.1,0,3.8-0.5,5-1.4
		C207.1,34.6,207.7,33.4,207.7,31.8L207.7,31.8z"/>
	<linearGradient id="SVGID_1_" gradientUnits="userSpaceOnUse" x1="6.4347" y1="43.4352" x2="42.4324" y2="7.4375">
		<stop  offset="0" style="stop-color:#306F96"/>
		<stop  offset="1" style="stop-color:#40B8BC"/>
	</linearGradient>
	<path class="st1" d="M12.4,12.5c6.9,0,12.4,5.6,12.4,12.5c0,6.9-5.6,12.5-12.4,12.5C5.6,37.5,0,31.9,0,25
		C0,18.1,5.6,12.5,12.4,12.5L12.4,12.5z M47.7,35H34.9c-3.4,5.9-9.8,9.8-17,9.8c-4.9,0-9.4-1.8-12.9-4.8c4.5,6.1,11.8,10,19.9,10
		C35.1,50,43.9,43.8,47.7,35L47.7,35z M34.9,15h12.8C43.9,6.2,35.1,0,24.9,0C16.7,0,9.5,3.9,4.9,10c3.5-3,8-4.8,12.9-4.8
		C25.1,5.2,31.4,9.2,34.9,15L34.9,15z"/>
</g>
</svg>
